<svg data-v-fde0c5aa="" xmlns="http://www.w3.org/2000/svg" viewBox="0 0 300 300" class="iconLeftSlogan"><!----><defs data-v-fde0c5aa=""><!----></defs><rect data-v-fde0c5aa="" fill="#EFF5E9" x="0" y="0" width="300px" height="300px" class="logo-background-square"></rect><defs data-v-fde0c5aa=""><!----></defs><g data-v-fde0c5aa="" id="ee4c123f-d8ac-4ad5-8acc-253d9ef5c7d5" fill="#213210" transform="matrix(1.5931495609870152,0,0,1.5931495609870152,102.86766559702404,124.219853644004)"><path d="M10.09 13.68L11.47 3.43L8.85 3.43L6.05 9.38C5.80 9.90 5.64 10.40 5.46 11.02C5.43 10.44 5.43 9.88 5.31 9.32L4.02 3.43L1.33 3.43L1.40 4.28L0.15 13.68L1.68 13.68L2.62 6.73C2.66 6.40 2.66 6.05 2.67 5.73C2.72 6.13 2.84 6.61 2.87 6.73L4.40 13.69L5.63 13.69L8.93 6.73C9.10 6.40 9.24 6.06 9.38 5.73C9.32 6.05 9.23 6.40 9.18 6.73L8.26 13.68ZM17.95 8.16C17.95 7.07 17.01 6.54 15.81 6.54C13.29 6.54 11.91 8.97 11.91 10.86C11.91 12.75 13.24 13.85 14.95 13.85C16.66 13.85 17.72 12.92 17.72 12.92L17.14 11.76C16.66 12.12 15.89 12.61 15.12 12.61C14.39 12.61 13.76 12.08 13.69 10.96C17.05 10.93 17.95 9.24 17.95 8.16ZM16.23 8.19C16.23 9.03 15.27 9.73 13.79 9.77C14.13 8.22 15.25 7.71 15.68 7.71C16.04 7.71 16.23 7.91 16.23 8.19ZM22.71 8.25L23.20 6.58C22.26 6.58 21.32 7.32 20.80 8.05C20.82 7.92 20.82 7.78 20.82 7.64C20.82 7.28 20.78 6.92 20.68 6.58L18.97 6.72C19.17 7.04 19.19 7.53 19.19 7.90C19.19 8.13 19.17 8.41 19.14 8.60L18.47 13.68L20.06 13.68L20.62 9.53C21.07 8.95 21.77 8.25 22.65 8.25ZM27.68 8.32L28.64 7.21C28.14 6.79 27.26 6.54 26.61 6.54C24.25 6.54 22.76 8.58 22.76 10.92C22.76 12.56 23.86 13.85 25.56 13.85C26.50 13.85 27.19 13.59 27.94 13.19L27.43 11.98C27.02 12.29 26.46 12.61 25.89 12.61C24.85 12.61 24.53 11.69 24.53 10.75C24.53 9.67 25.00 7.70 26.42 7.70C26.95 7.70 27.34 7.97 27.68 8.32ZM35.78 13.37L35.55 12.49C35.36 12.56 35.06 12.66 34.87 12.66C34.59 12.66 34.52 12.39 34.52 12.15C34.52 12.05 34.54 11.96 34.55 11.86L35.31 6.68L34.43 6.68L34.10 7.25C33.61 6.73 32.89 6.55 32.42 6.55C30.00 6.55 28.66 8.79 28.66 10.92C28.66 12.43 29.37 13.85 31.05 13.85C31.74 13.85 32.55 13.58 33.10 12.85L33.15 12.85C33.26 13.40 33.74 13.80 34.30 13.80C34.78 13.80 35.38 13.64 35.78 13.37ZM33.52 8.26C33.25 10.22 32.77 12.68 31.37 12.68C30.55 12.68 30.35 11.80 30.35 10.92C30.35 9.93 30.81 7.70 32.31 7.70C32.75 7.70 33.12 7.87 33.52 8.26ZM41.90 11.84L43.19 2.91L41.41 2.91L41.48 3.68L41.05 7.00C40.71 6.68 40.10 6.55 39.63 6.55C37.28 6.55 36.01 8.79 36.01 10.92C36.01 12.43 36.72 13.85 38.40 13.85C39.09 13.85 39.91 13.58 40.46 12.85C40.61 13.40 41.09 13.80 41.65 13.80C42.13 13.80 42.73 13.64 43.13 13.37L42.90 12.47C42.71 12.54 42.41 12.64 42.22 12.64C41.94 12.64 41.87 12.38 41.87 12.14C41.87 12.04 41.89 11.94 41.90 11.84ZM40.88 8.26C40.61 10.22 40.18 12.68 38.74 12.68C37.91 12.68 37.72 11.87 37.72 10.88C37.72 9.88 38.18 7.70 39.68 7.70C40.11 7.70 40.49 7.87 40.88 8.26ZM49.94 9.55C49.94 7.84 48.96 6.54 47.17 6.54C44.87 6.54 43.41 8.69 43.41 10.84C43.41 12.54 44.39 13.85 46.19 13.85C48.50 13.85 49.94 11.70 49.94 9.55ZM48.19 9.41C48.19 10.54 47.82 12.73 46.34 12.73C45.36 12.73 45.16 11.70 45.16 10.92C45.16 9.83 45.58 7.69 47.01 7.69C47.99 7.69 48.19 8.61 48.19 9.41ZM62.57 7.59C62.57 5.03 61.10 3.43 58.51 3.43L54.82 3.43L54.92 4.28L53.66 13.68L57.12 13.68C60.54 13.68 62.57 10.78 62.57 7.59ZM60.58 7.76C60.58 9.80 59.61 12.29 57.23 12.29L55.69 12.29L56.69 4.82L58.20 4.82C59.96 4.82 60.58 6.20 60.58 7.76ZM68.78 8.16C68.78 7.07 67.84 6.54 66.64 6.54C64.12 6.54 62.75 8.97 62.75 10.86C62.75 12.75 64.08 13.85 65.79 13.85C67.49 13.85 68.56 12.92 68.56 12.92L67.97 11.76C67.49 12.12 66.72 12.61 65.95 12.61C65.23 12.61 64.60 12.08 64.53 10.96C67.89 10.93 68.78 9.24 68.78 8.16ZM67.06 8.19C67.06 9.03 66.11 9.73 64.62 9.77C64.96 8.22 66.08 7.71 66.51 7.71C66.88 7.71 67.06 7.91 67.06 8.19ZM71.04 12.92L72.38 2.91L70.59 2.91L70.63 3.67L69.30 13.68L71.08 13.68ZM75.57 4.03C75.57 3.53 75.22 3.12 74.70 3.12C74.06 3.12 73.53 3.71 73.53 4.34C73.53 4.84 73.89 5.26 74.41 5.26C75.05 5.26 75.57 4.65 75.57 4.03ZM74.17 12.91L75.00 6.72L73.26 6.72L73.30 7.48L72.48 13.68L74.21 13.68ZM78.47 13.73L81.72 6.72L80.08 6.72L78.46 10.39C78.29 10.77 78.20 11.17 78.09 11.56C78.06 11.16 78.04 10.78 77.95 10.39L77.21 6.72L75.50 6.72L76.99 13.73ZM87.49 8.16C87.49 7.07 86.55 6.54 85.34 6.54C82.82 6.54 81.45 8.97 81.45 10.86C81.45 12.75 82.78 13.85 84.49 13.85C86.20 13.85 87.26 12.92 87.26 12.92L86.67 11.76C86.20 12.12 85.43 12.61 84.66 12.61C83.93 12.61 83.30 12.08 83.23 10.96C86.59 10.93 87.49 9.24 87.49 8.16ZM85.76 8.19C85.76 9.03 84.81 9.73 83.33 9.77C83.66 8.22 84.78 7.71 85.22 7.71C85.58 7.71 85.76 7.91 85.76 8.19ZM92.25 8.25L92.74 6.58C91.80 6.58 90.86 7.32 90.34 8.05C90.36 7.92 90.36 7.78 90.36 7.64C90.36 7.28 90.31 6.92 90.22 6.58L88.51 6.72C88.70 7.04 88.73 7.53 88.73 7.90C88.73 8.13 88.70 8.41 88.68 8.60L88.00 13.68L89.60 13.68L90.16 9.53C90.61 8.95 91.31 8.25 92.19 8.25ZM95.37 13.72L98.63 6.72L97.06 6.72C96.47 8.01 95.84 9.28 95.28 10.58C95.14 10.91 95.05 11.30 94.95 11.63C94.93 11.30 94.95 10.91 94.89 10.58C94.68 9.28 94.39 8.01 94.12 6.72L92.41 6.72L93.88 13.66C93.46 14.48 92.76 15.78 91.53 15.78C90.85 15.78 90.30 15.26 90.30 15.26L89.59 16.34C89.59 16.34 90.29 16.90 91.55 16.90C93.80 16.90 94.71 15.12 95.37 13.72Z"></path></g><defs data-v-fde0c5aa=""><linearGradient data-v-fde0c5aa="" gradientTransform="rotate(25)" id="7091b46c-03c9-4727-9233-01118311bf92" x1="0%" y1="0%" x2="100%" y2="0%"><stop data-v-fde0c5aa="" offset="0%" stop-color="#666C35" stop-opacity="1"></stop><stop data-v-fde0c5aa="" offset="100%" stop-color="#77D636" stop-opacity="1"></stop></linearGradient></defs><g data-v-fde0c5aa="" id="9896e5e2-683e-422a-a65a-8cc6a5154048" stroke="none" fill="url(#7091b46c-03c9-4727-9233-01118311bf92)" transform="matrix(0.5387810542007312,0,0,0.5387810542007312,39.191828418698904,124.13823655906687)"><path d="M93 29.42h-6.965l-1.208-10.395c-.85-7.316-14.402-13.047-30.852-13.047H42.026c-16.45 0-30.002 5.731-30.853 13.048L9.965 29.42H3a1.5 1.5 0 0 0-1.5 1.5v16.467a1.5 1.5 0 0 0 1.5 1.5h11.747l5.775 39.851a1.499 1.499 0 0 0 1.484 1.285h51.986c.745 0 1.378-.547 1.484-1.285l5.775-39.851H93a1.5 1.5 0 0 0 1.5-1.5V30.92a1.5 1.5 0 0 0-1.5-1.5zM14.154 19.372c.571-4.917 12.158-10.395 27.872-10.395h11.948c15.714 0 27.301 5.478 27.872 10.395l1.168 10.048h-7.292l-.823-6.954c-.738-6.235-14.41-9.6-26.899-9.6s-26.161 3.365-26.899 9.601l-.823 6.953h-7.292l1.168-10.048zM72.702 29.42H23.298l.781-6.601c.344-2.903 9.61-6.953 23.921-6.953s23.577 4.049 23.921 6.953l.781 6.601zm1.744 45.523H59.533l1.29-12.592H76.27l-1.824 12.592zm-17.928 0H38.78l-1.022-12.592h20.05l-1.29 12.592zM39.762 87.024l-.737-9.081H56.21l-.931 9.081H39.762zM19.729 62.351h15.019l1.022 12.592H21.554l-1.825-12.592zm17.785-3l-.85-10.463h22.523l-1.072 10.463H37.514zm-3.86-10.463l.85 10.463H19.295l-1.517-10.463h15.876zM21.988 77.943h14.026l.737 9.081H23.305l-1.317-9.081zm50.707 9.081h-14.4l.931-9.081h14.786l-1.317 9.081zm4.01-27.673H61.131l1.072-10.463h16.019l-1.517 10.463zM91.5 45.888h-87V32.42h87v13.468z"></path><path d="M16.689 33.966c-2.861 0-5.188 2.327-5.188 5.188s2.327 5.188 5.188 5.188c2.86 0 5.188-2.328 5.188-5.188s-2.327-5.188-5.188-5.188zm0 7.376c-1.207 0-2.188-.982-2.188-2.188s.981-2.188 2.188-2.188c1.206 0 2.188.981 2.188 2.188s-.981 2.188-2.188 2.188zM79.955 44.342c2.861 0 5.188-2.328 5.188-5.188s-2.327-5.188-5.188-5.188c-2.86 0-5.188 2.327-5.188 5.188s2.328 5.188 5.188 5.188zm0-7.376c1.207 0 2.188.981 2.188 2.188s-.981 2.188-2.188 2.188c-1.206 0-2.188-.982-2.188-2.188s.982-2.188 2.188-2.188z"></path></g><defs data-v-fde0c5aa=""><!----></defs><g data-v-fde0c5aa="" id="9facd228-ad9c-4883-ab50-2c181e49aa05" fill="#213210" transform="matrix(0.7027068524971757,0,0,0.7027068524971757,102.22122741322309,159.25379952335607)"><path d="M1.68 7.48L6.02 7.48L6.02 7.08L1.68 7.08L1.68 3.21L6.30 3.21L6.30 2.80L1.26 2.80L1.26 12.60L6.30 12.60L6.30 12.19L1.68 12.19ZM15.36 9.74L14.98 9.90C15.61 11.77 16.66 12.71 18.13 12.71C19.04 12.71 19.74 12.45 20.20 11.93C20.67 11.41 20.90 10.77 20.90 10.01C20.90 9.66 20.84 9.35 20.73 9.06C20.61 8.78 20.48 8.55 20.34 8.37C20.19 8.19 19.99 8.02 19.73 7.86C19.46 7.70 19.25 7.58 19.09 7.50C18.93 7.43 18.70 7.34 18.42 7.22C18.39 7.21 18.27 7.16 18.07 7.08C17.88 7.01 17.76 6.96 17.71 6.94C17.66 6.91 17.56 6.87 17.39 6.80C17.22 6.73 17.11 6.67 17.06 6.64C17.01 6.60 16.92 6.54 16.79 6.45C16.66 6.37 16.57 6.30 16.52 6.24C16.47 6.18 16.41 6.10 16.32 6.00C16.24 5.90 16.18 5.80 16.15 5.70C16.12 5.61 16.09 5.50 16.06 5.38C16.03 5.25 16.02 5.12 16.02 4.98C16.02 4.41 16.21 3.95 16.61 3.62C17.01 3.29 17.50 3.12 18.09 3.12C19.22 3.12 20.00 3.77 20.44 5.07L20.85 4.90C20.64 4.23 20.30 3.69 19.84 3.29C19.37 2.89 18.79 2.69 18.10 2.69C17.41 2.69 16.81 2.90 16.30 3.33C15.79 3.76 15.54 4.33 15.54 5.04C15.54 5.39 15.61 5.71 15.76 5.99C15.90 6.27 16.12 6.51 16.40 6.71C16.69 6.91 16.94 7.07 17.17 7.17C17.40 7.28 17.70 7.41 18.06 7.55C18.34 7.65 18.53 7.72 18.63 7.77C18.74 7.82 18.91 7.90 19.15 8.02C19.39 8.13 19.57 8.24 19.68 8.34C19.78 8.45 19.91 8.58 20.05 8.75C20.20 8.92 20.30 9.11 20.36 9.32C20.41 9.54 20.44 9.78 20.44 10.05C20.44 10.72 20.25 11.27 19.87 11.68C19.50 12.09 18.93 12.29 18.17 12.29C16.94 12.29 16.00 11.44 15.36 9.74ZM29.83 7.70C29.83 6.33 30.21 5.22 30.98 4.38C31.74 3.53 32.74 3.11 33.99 3.11C35.19 3.11 36.24 3.54 37.14 4.41L37.14 3.81C36.29 3.06 35.24 2.69 33.99 2.69C32.64 2.69 31.53 3.16 30.67 4.09C29.80 5.03 29.37 6.23 29.37 7.70C29.37 9.17 29.80 10.37 30.67 11.30C31.53 12.24 32.64 12.71 33.99 12.71C35.24 12.71 36.29 12.34 37.14 11.59L37.14 11.03C36.27 11.87 35.22 12.29 33.99 12.29C32.74 12.29 31.74 11.87 30.98 11.03C30.21 10.18 29.83 9.07 29.83 7.70ZM46.38 7.70C46.38 6.38 46.79 5.29 47.60 4.41C48.41 3.53 49.44 3.09 50.68 3.09C51.92 3.09 52.95 3.53 53.76 4.41C54.57 5.29 54.98 6.38 54.98 7.70C54.98 9.02 54.57 10.11 53.76 10.99C52.95 11.87 51.92 12.31 50.68 12.31C49.44 12.31 48.41 11.87 47.60 10.99C46.79 10.11 46.38 9.02 46.38 7.70ZM45.96 7.70C45.96 9.16 46.41 10.36 47.30 11.30C48.19 12.24 49.32 12.71 50.68 12.71C52.04 12.71 53.17 12.24 54.06 11.30C54.95 10.36 55.40 9.16 55.40 7.70C55.40 6.24 54.95 5.04 54.06 4.10C53.17 3.16 52.04 2.69 50.68 2.69C49.32 2.69 48.19 3.16 47.30 4.10C46.41 5.04 45.96 6.24 45.96 7.70ZM64.36 2.80L64.36 12.60L68.84 12.60L68.84 12.19L64.78 12.19L64.78 2.80ZM77.38 2.80L77.38 12.60L77.80 12.60L77.80 7.62L84.03 7.62L84.03 12.60L84.45 12.60L84.45 2.80L84.03 2.80L84.03 7.18L77.80 7.18L77.80 2.80ZM94.39 7.48L98.73 7.48L98.73 7.08L94.39 7.08L94.39 3.21L99.01 3.21L99.01 2.80L93.97 2.80L93.97 12.60L99.01 12.60L99.01 12.19L94.39 12.19ZM108.32 2.80L108.32 9.24C108.32 10.29 108.60 11.13 109.17 11.77C109.74 12.42 110.50 12.74 111.44 12.74C112.38 12.74 113.14 12.42 113.71 11.77C114.28 11.13 114.56 10.29 114.56 9.24L114.56 2.80L114.14 2.80L114.14 9.24C114.14 10.17 113.89 10.92 113.38 11.47C112.87 12.02 112.22 12.29 111.44 12.29C110.66 12.29 110.01 12.02 109.50 11.47C108.99 10.92 108.74 10.17 108.74 9.24L108.74 2.80ZM135.11 7.70C135.11 6.33 135.49 5.22 136.25 4.38C137.02 3.53 138.02 3.11 139.27 3.11C140.47 3.11 141.52 3.54 142.42 4.41L142.42 3.81C141.57 3.06 140.52 2.69 139.27 2.69C137.92 2.69 136.81 3.16 135.95 4.09C135.08 5.03 134.65 6.23 134.65 7.70C134.65 9.17 135.08 10.37 135.95 11.30C136.81 12.24 137.92 12.71 139.27 12.71C140.52 12.71 141.57 12.34 142.42 11.59L142.42 11.03C141.55 11.87 140.50 12.29 139.27 12.29C138.02 12.29 137.02 11.87 136.25 11.03C135.49 10.18 135.11 9.07 135.11 7.70ZM151.80 2.80L151.80 12.60L152.22 12.60L152.22 7.62L158.45 7.62L158.45 12.60L158.87 12.60L158.87 2.80L158.45 2.80L158.45 7.18L152.22 7.18L152.22 2.80ZM168.81 7.48L173.15 7.48L173.15 7.08L168.81 7.08L168.81 3.21L173.43 3.21L173.43 2.80L168.39 2.80L168.39 12.60L173.43 12.60L173.43 12.19L168.81 12.19ZM191.49 7.63L187.43 7.63L187.43 8.11L191.02 8.11C190.93 9.32 190.54 10.32 189.83 11.09C189.12 11.87 188.18 12.26 187.01 12.26C185.72 12.26 184.68 11.82 183.89 10.94C183.10 10.06 182.70 8.98 182.70 7.70C182.70 6.40 183.10 5.32 183.91 4.45C184.72 3.57 185.75 3.14 187.01 3.14C187.76 3.14 188.45 3.31 189.09 3.65C189.73 4.00 190.24 4.47 190.62 5.05L191.02 4.75C190.58 4.11 190.02 3.61 189.34 3.24C188.65 2.87 187.88 2.69 187.01 2.69C185.66 2.69 184.53 3.17 183.62 4.13C182.71 5.09 182.25 6.28 182.25 7.70C182.25 9.12 182.71 10.31 183.62 11.27C184.53 12.23 185.66 12.71 187.01 12.71C188.38 12.71 189.47 12.22 190.28 11.23C191.09 10.25 191.49 9.05 191.49 7.63ZM200.38 7.70C200.38 6.38 200.79 5.29 201.60 4.41C202.41 3.53 203.44 3.09 204.68 3.09C205.92 3.09 206.95 3.53 207.76 4.41C208.57 5.29 208.98 6.38 208.98 7.70C208.98 9.02 208.57 10.11 207.76 10.99C206.95 11.87 205.92 12.31 204.68 12.31C203.44 12.31 202.41 11.87 201.60 10.99C200.79 10.11 200.38 9.02 200.38 7.70ZM199.96 7.70C199.96 9.16 200.41 10.36 201.30 11.30C202.19 12.24 203.32 12.71 204.68 12.71C206.04 12.71 207.17 12.24 208.06 11.30C208.95 10.36 209.40 9.16 209.40 7.70C209.40 6.24 208.95 5.04 208.06 4.10C207.17 3.16 206.04 2.69 204.68 2.69C203.32 2.69 202.19 3.16 201.30 4.10C200.41 5.04 199.96 6.24 199.96 7.70ZM218.29 2.80L218.29 9.24C218.29 10.29 218.57 11.13 219.14 11.77C219.71 12.42 220.47 12.74 221.41 12.74C222.35 12.74 223.11 12.42 223.68 11.77C224.25 11.13 224.53 10.29 224.53 9.24L224.53 2.80L224.11 2.80L224.11 9.24C224.11 10.17 223.86 10.92 223.35 11.47C222.84 12.02 222.19 12.29 221.41 12.29C220.63 12.29 219.98 12.02 219.47 11.47C218.96 10.92 218.71 10.17 218.71 9.24L218.71 2.80Z"></path></g></svg>