<?xml version="1.0" encoding="UTF-8" standalone="no"?>
<!-- Created with Inkscape (http://www.inkscape.org/) -->

<svg
   width="24.200001mm"
   height="22mm"
   viewBox="0 0 24.2 22"
   version="1.1"
   id="svg1011"
   inkscape:version="1.1 (c68e22c387, 2021-05-23)"
   sodipodi:docname="chart.svg"
   xmlns:inkscape="http://www.inkscape.org/namespaces/inkscape"
   xmlns:sodipodi="http://sodipodi.sourceforge.net/DTD/sodipodi-0.dtd"
   xmlns="http://www.w3.org/2000/svg"
   xmlns:svg="http://www.w3.org/2000/svg">
  <sodipodi:namedview
     id="namedview1013"
     pagecolor="#505050"
     bordercolor="#eeeeee"
     borderopacity="1"
     inkscape:pageshadow="0"
     inkscape:pageopacity="0"
     inkscape:pagecheckerboard="0"
     inkscape:document-units="mm"
     showgrid="false"
     inkscape:zoom="8.3049731"
     inkscape:cx="55.207885"
     inkscape:cy="43.648546"
     inkscape:window-width="1920"
     inkscape:window-height="1013"
     inkscape:window-x="1791"
     inkscape:window-y="-9"
     inkscape:window-maximized="1"
     inkscape:current-layer="layer1" />
  <defs
     id="defs1008" />
  <g
     inkscape:label="Camada 1"
     inkscape:groupmode="layer"
     id="layer1">
    <path
       style="fill:#000000;stroke-width:0.0846667"
       d="m 7.3761893,21.790082 c -0.61976,-0.18566 -1.26391,-0.85726 -1.49139,-1.55492 -0.14001,-0.42943 -0.0688,-1.19623 0.15121,-1.62742 0.0944,-0.18499 0.34332,-0.49464 0.55321,-0.68811 0.93022,-0.85745 2.33044,-0.76484 3.18934,0.21092 1.0140707,1.15205 0.6219907,2.88348 -0.80325,3.54718 -0.44596,0.20767 -1.12232,0.25519 -1.59912,0.11235 z m 12.4815507,-0.0539 c -0.88823,-0.32578 -1.50998,-1.33645 -1.42162,-2.31089 0.18184,-2.00539 2.62877,-2.8046 3.9592,-1.29315 0.3345,0.38 0.59055,1.01268 0.59055,1.45916 0,0.76353 -0.58644,1.68309 -1.30853,2.05182 -0.45658,0.23316 -1.31756,0.27719 -1.8196,0.0931 z M 8.6348693,14.940132 c -0.65529,-0.15953 -1.3671,-0.80684 -1.54225,-1.4025 -0.0548,-0.18626 -0.42957,-1.46261 -0.83289,-2.83633 -0.40333,-1.3737197 -1.11024,-3.7578493 -1.57092,-5.2980793 -0.46068,-1.54023 -0.83761,-2.84515 -0.83761,-2.89983 0,-0.0723 -0.40081,-0.0994 -1.46914,-0.0994 -1.38490996,0 -1.48563995,-0.011 -1.75683995,-0.19162 -0.5854,-0.38992 -0.7237,-1.10899 -0.31357,-1.63039001 0.33082,-0.42057 0.5749,-0.46399 2.60821995,-0.46399 1.97096,0 2.24635,0.0435 2.56889,0.40568 0.0857,0.0963 0.4336,1.10166001 0.77302,2.23418001 2.1614,7.2117496 2.92342,9.8015293 2.92342,9.9354493 0,0.14409 0.13276,0.14908 2.5538007,0.096 1.40458,-0.0308 3.74773,-0.056 5.207,-0.056 2.44069,0 2.6532,-0.0115 2.6532,-0.14393 0,-0.13016 0.66661,-2.52948 1.53403,-5.5213793 0.18108,-0.6246 0.31506,-1.14983 0.29772,-1.16717 -0.0173,-0.0173 -1.98263,-0.0295 -4.3673,-0.0271 -2.72678,0.003 -4.45611,-0.0279 -4.66004,-0.0829 -0.47496,-0.12789 -0.84783,-0.58567 -0.84742,-1.0404 1.7e-4,-0.20444 0.0709,-0.47267 0.16559,-0.62794 0.33725,-0.55312 0.1103,-0.53328 6.09942,-0.53328 5.98913,0 5.76217,-0.0198 6.09943,0.53328 0.0909,0.14908 0.16542,0.39729 0.16559,0.55158 1.7e-4,0.15428 -0.51014,2.07833 -1.13404,4.2756596 -0.62389,2.1973297 -1.16194,4.1284997 -1.19566,4.2914797 -0.0985,0.47604 -0.34749,0.8909 -0.73253,1.22048 -0.65955,0.56455 -0.586,0.5585 -6.66832,0.54885 -3.00674,-0.005 -5.5811007,-0.0365 -5.7208007,-0.0705 z"
       id="path1084" />
  </g>
</svg>
