<?xml version="1.0" encoding="UTF-8" standalone="no"?>
<svg
   data-v-423bf9ae=""
   viewBox="0 0 542 90"
   class="iconLeftSlogan"
   version="1.1"
   id="svg20"
   sodipodi:docname="mercado_delivery_default_logo.svg"
   inkscape:version="1.1 (c68e22c387, 2021-05-23)"
   xmlns:inkscape="http://www.inkscape.org/namespaces/inkscape"
   xmlns:sodipodi="http://sodipodi.sourceforge.net/DTD/sodipodi-0.dtd"
   xmlns="http://www.w3.org/2000/svg"
   xmlns:svg="http://www.w3.org/2000/svg">
  <sodipodi:namedview
     id="namedview22"
     pagecolor="#505050"
     bordercolor="#eeeeee"
     borderopacity="1"
     inkscape:pageshadow="0"
     inkscape:pageopacity="0"
     inkscape:pagecheckerboard="0"
     showgrid="false"
     inkscape:zoom="1.3210332"
     inkscape:cx="322.09637"
     inkscape:cy="51.853352"
     inkscape:window-width="1800"
     inkscape:window-height="1059"
     inkscape:window-x="-9"
     inkscape:window-y="-9"
     inkscape:window-maximized="1"
     inkscape:current-layer="svg20" />
  <!---->
  <!---->
  <!---->
  <g
     data-v-423bf9ae=""
     id="e7701982-4d8e-448b-a680-2641bb8ba6e2"
     fill="#213210"
     transform="matrix(4.288777768522039,0,0,4.288777768522039,118.9461792686811,-12.480344389763623)">
    <path
       d="M10.09 13.68L11.47 3.43L8.85 3.43L6.05 9.38C5.80 9.90 5.64 10.40 5.46 11.02C5.43 10.44 5.43 9.88 5.31 9.32L4.02 3.43L1.33 3.43L1.40 4.28L0.15 13.68L1.68 13.68L2.62 6.73C2.66 6.40 2.66 6.05 2.67 5.73C2.72 6.13 2.84 6.61 2.87 6.73L4.40 13.69L5.63 13.69L8.93 6.73C9.10 6.40 9.24 6.06 9.38 5.73C9.32 6.05 9.23 6.40 9.18 6.73L8.26 13.68ZM17.95 8.16C17.95 7.07 17.01 6.54 15.81 6.54C13.29 6.54 11.91 8.97 11.91 10.86C11.91 12.75 13.24 13.85 14.95 13.85C16.66 13.85 17.72 12.92 17.72 12.92L17.14 11.76C16.66 12.12 15.89 12.61 15.12 12.61C14.39 12.61 13.76 12.08 13.69 10.96C17.05 10.93 17.95 9.24 17.95 8.16ZM16.23 8.19C16.23 9.03 15.27 9.73 13.79 9.77C14.13 8.22 15.25 7.71 15.68 7.71C16.04 7.71 16.23 7.91 16.23 8.19ZM22.71 8.25L23.20 6.58C22.26 6.58 21.32 7.32 20.80 8.05C20.82 7.92 20.82 7.78 20.82 7.64C20.82 7.28 20.78 6.92 20.68 6.58L18.97 6.72C19.17 7.04 19.19 7.53 19.19 7.90C19.19 8.13 19.17 8.41 19.14 8.60L18.47 13.68L20.06 13.68L20.62 9.53C21.07 8.95 21.77 8.25 22.65 8.25ZM27.68 8.32L28.64 7.21C28.14 6.79 27.26 6.54 26.61 6.54C24.25 6.54 22.76 8.58 22.76 10.92C22.76 12.56 23.86 13.85 25.56 13.85C26.50 13.85 27.19 13.59 27.94 13.19L27.43 11.98C27.02 12.29 26.46 12.61 25.89 12.61C24.85 12.61 24.53 11.69 24.53 10.75C24.53 9.67 25.00 7.70 26.42 7.70C26.95 7.70 27.34 7.97 27.68 8.32ZM35.78 13.37L35.55 12.49C35.36 12.56 35.06 12.66 34.87 12.66C34.59 12.66 34.52 12.39 34.52 12.15C34.52 12.05 34.54 11.96 34.55 11.86L35.31 6.68L34.43 6.68L34.10 7.25C33.61 6.73 32.89 6.55 32.42 6.55C30.00 6.55 28.66 8.79 28.66 10.92C28.66 12.43 29.37 13.85 31.05 13.85C31.74 13.85 32.55 13.58 33.10 12.85L33.15 12.85C33.26 13.40 33.74 13.80 34.30 13.80C34.78 13.80 35.38 13.64 35.78 13.37ZM33.52 8.26C33.25 10.22 32.77 12.68 31.37 12.68C30.55 12.68 30.35 11.80 30.35 10.92C30.35 9.93 30.81 7.70 32.31 7.70C32.75 7.70 33.12 7.87 33.52 8.26ZM41.90 11.84L43.19 2.91L41.41 2.91L41.48 3.68L41.05 7.00C40.71 6.68 40.10 6.55 39.63 6.55C37.28 6.55 36.01 8.79 36.01 10.92C36.01 12.43 36.72 13.85 38.40 13.85C39.09 13.85 39.91 13.58 40.46 12.85C40.61 13.40 41.09 13.80 41.65 13.80C42.13 13.80 42.73 13.64 43.13 13.37L42.90 12.47C42.71 12.54 42.41 12.64 42.22 12.64C41.94 12.64 41.87 12.38 41.87 12.14C41.87 12.04 41.89 11.94 41.90 11.84ZM40.88 8.26C40.61 10.22 40.18 12.68 38.74 12.68C37.91 12.68 37.72 11.87 37.72 10.88C37.72 9.88 38.18 7.70 39.68 7.70C40.11 7.70 40.49 7.87 40.88 8.26ZM49.94 9.55C49.94 7.84 48.96 6.54 47.17 6.54C44.87 6.54 43.41 8.69 43.41 10.84C43.41 12.54 44.39 13.85 46.19 13.85C48.50 13.85 49.94 11.70 49.94 9.55ZM48.19 9.41C48.19 10.54 47.82 12.73 46.34 12.73C45.36 12.73 45.16 11.70 45.16 10.92C45.16 9.83 45.58 7.69 47.01 7.69C47.99 7.69 48.19 8.61 48.19 9.41ZM62.57 7.59C62.57 5.03 61.10 3.43 58.51 3.43L54.82 3.43L54.92 4.28L53.66 13.68L57.12 13.68C60.54 13.68 62.57 10.78 62.57 7.59ZM60.58 7.76C60.58 9.80 59.61 12.29 57.23 12.29L55.69 12.29L56.69 4.82L58.20 4.82C59.96 4.82 60.58 6.20 60.58 7.76ZM68.78 8.16C68.78 7.07 67.84 6.54 66.64 6.54C64.12 6.54 62.75 8.97 62.75 10.86C62.75 12.75 64.08 13.85 65.79 13.85C67.49 13.85 68.56 12.92 68.56 12.92L67.97 11.76C67.49 12.12 66.72 12.61 65.95 12.61C65.23 12.61 64.60 12.08 64.53 10.96C67.89 10.93 68.78 9.24 68.78 8.16ZM67.06 8.19C67.06 9.03 66.11 9.73 64.62 9.77C64.96 8.22 66.08 7.71 66.51 7.71C66.88 7.71 67.06 7.91 67.06 8.19ZM71.04 12.92L72.38 2.91L70.59 2.91L70.63 3.67L69.30 13.68L71.08 13.68ZM75.57 4.03C75.57 3.53 75.22 3.12 74.70 3.12C74.06 3.12 73.53 3.71 73.53 4.34C73.53 4.84 73.89 5.26 74.41 5.26C75.05 5.26 75.57 4.65 75.57 4.03ZM74.17 12.91L75.00 6.72L73.26 6.72L73.30 7.48L72.48 13.68L74.21 13.68ZM78.47 13.73L81.72 6.72L80.08 6.72L78.46 10.39C78.29 10.77 78.20 11.17 78.09 11.56C78.06 11.16 78.04 10.78 77.95 10.39L77.21 6.72L75.50 6.72L76.99 13.73ZM87.49 8.16C87.49 7.07 86.55 6.54 85.34 6.54C82.82 6.54 81.45 8.97 81.45 10.86C81.45 12.75 82.78 13.85 84.49 13.85C86.20 13.85 87.26 12.92 87.26 12.92L86.67 11.76C86.20 12.12 85.43 12.61 84.66 12.61C83.93 12.61 83.30 12.08 83.23 10.96C86.59 10.93 87.49 9.24 87.49 8.16ZM85.76 8.19C85.76 9.03 84.81 9.73 83.33 9.77C83.66 8.22 84.78 7.71 85.22 7.71C85.58 7.71 85.76 7.91 85.76 8.19ZM92.25 8.25L92.74 6.58C91.80 6.58 90.86 7.32 90.34 8.05C90.36 7.92 90.36 7.78 90.36 7.64C90.36 7.28 90.31 6.92 90.22 6.58L88.51 6.72C88.70 7.04 88.73 7.53 88.73 7.90C88.73 8.13 88.70 8.41 88.68 8.60L88.00 13.68L89.60 13.68L90.16 9.53C90.61 8.95 91.31 8.25 92.19 8.25ZM95.37 13.72L98.63 6.72L97.06 6.72C96.47 8.01 95.84 9.28 95.28 10.58C95.14 10.91 95.05 11.30 94.95 11.63C94.93 11.30 94.95 10.91 94.89 10.58C94.68 9.28 94.39 8.01 94.12 6.72L92.41 6.72L93.88 13.66C93.46 14.48 92.76 15.78 91.53 15.78C90.85 15.78 90.30 15.26 90.30 15.26L89.59 16.34C89.59 16.34 90.29 16.90 91.55 16.90C93.80 16.90 94.71 15.12 95.37 13.72Z"
       id="path2" />
  </g>
  <defs
     data-v-423bf9ae=""
     id="defs10">
    <linearGradient
       data-v-423bf9ae=""
       gradientTransform="rotate(25)"
       id="4cb2de5b-4a90-43cc-90d0-d61dfda8ed2b"
       x1="0%"
       y1="0%"
       x2="100%"
       y2="0%">
      <stop
         data-v-423bf9ae=""
         offset="0%"
         style="stop-color: rgb(102, 108, 53); stop-opacity: 1;"
         id="stop5" />
      <stop
         data-v-423bf9ae=""
         offset="100%"
         style="stop-color: rgb(119, 214, 54); stop-opacity: 1;"
         id="stop7" />
    </linearGradient>
  </defs>
  <g
     data-v-423bf9ae=""
     id="fea0dc13-87c8-4a90-b1d7-8ddd969dbe0d"
     transform="matrix(1.0708547280724274,0,0,1.0708547280724274,-0.9010269474765167,-5.423569542253247)"
     stroke="none"
     fill="url(#4cb2de5b-4a90-43cc-90d0-d61dfda8ed2b)">
    <path
       d="M93 29.42h-6.965l-1.208-10.395c-.85-7.316-14.402-13.047-30.852-13.047H42.026c-16.45 0-30.002 5.731-30.853 13.048L9.965 29.42H3a1.5 1.5 0 0 0-1.5 1.5v16.467a1.5 1.5 0 0 0 1.5 1.5h11.747l5.775 39.851a1.499 1.499 0 0 0 1.484 1.285h51.986c.745 0 1.378-.547 1.484-1.285l5.775-39.851H93a1.5 1.5 0 0 0 1.5-1.5V30.92a1.5 1.5 0 0 0-1.5-1.5zM14.154 19.372c.571-4.917 12.158-10.395 27.872-10.395h11.948c15.714 0 27.301 5.478 27.872 10.395l1.168 10.048h-7.292l-.823-6.954c-.738-6.235-14.41-9.6-26.899-9.6s-26.161 3.365-26.899 9.601l-.823 6.953h-7.292l1.168-10.048zM72.702 29.42H23.298l.781-6.601c.344-2.903 9.61-6.953 23.921-6.953s23.577 4.049 23.921 6.953l.781 6.601zm1.744 45.523H59.533l1.29-12.592H76.27l-1.824 12.592zm-17.928 0H38.78l-1.022-12.592h20.05l-1.29 12.592zM39.762 87.024l-.737-9.081H56.21l-.931 9.081H39.762zM19.729 62.351h15.019l1.022 12.592H21.554l-1.825-12.592zm17.785-3l-.85-10.463h22.523l-1.072 10.463H37.514zm-3.86-10.463l.85 10.463H19.295l-1.517-10.463h15.876zM21.988 77.943h14.026l.737 9.081H23.305l-1.317-9.081zm50.707 9.081h-14.4l.931-9.081h14.786l-1.317 9.081zm4.01-27.673H61.131l1.072-10.463h16.019l-1.517 10.463zM91.5 45.888h-87V32.42h87v13.468z"
       id="path12" />
    <path
       d="M16.689 33.966c-2.861 0-5.188 2.327-5.188 5.188s2.327 5.188 5.188 5.188c2.86 0 5.188-2.328 5.188-5.188s-2.327-5.188-5.188-5.188zm0 7.376c-1.207 0-2.188-.982-2.188-2.188s.981-2.188 2.188-2.188c1.206 0 2.188.981 2.188 2.188s-.981 2.188-2.188 2.188zM79.955 44.342c2.861 0 5.188-2.328 5.188-5.188s-2.327-5.188-5.188-5.188c-2.86 0-5.188 2.327-5.188 5.188s2.328 5.188 5.188 5.188zm0-7.376c1.207 0 2.188.981 2.188 2.188s-.981 2.188-2.188 2.188c-1.206 0-2.188-.982-2.188-2.188s.982-2.188 2.188-2.188z"
       id="path14" />
  </g>
  <!---->
  <g
     data-v-423bf9ae=""
     id="6928b1d5-9363-45ba-a857-564793076d4b"
     fill="#213210"
     transform="matrix(1.5133562,0,0,1.5133562,139.63517,56.686054)"
     style="fill:#767676;fill-opacity:1;stroke:#49b339;stroke-width:0.660783;stroke-miterlimit:4;stroke-dasharray:none;stroke-opacity:1">
    <path
       d="M 1.68,7.48 H 6.02 V 7.08 H 1.68 V 3.21 H 6.3 V 2.8 H 1.26 v 9.8 H 6.3 V 12.19 H 1.68 Z M 15.36,9.74 14.98,9.9 c 0.63,1.87 1.68,2.81 3.15,2.81 0.91,0 1.61,-0.26 2.07,-0.78 0.47,-0.52 0.7,-1.16 0.7,-1.92 C 20.9,9.66 20.84,9.35 20.73,9.06 20.61,8.78 20.48,8.55 20.34,8.37 20.19,8.19 19.99,8.02 19.73,7.86 19.46,7.7 19.25,7.58 19.09,7.5 18.93,7.43 18.7,7.34 18.42,7.22 18.39,7.21 18.27,7.16 18.07,7.08 17.88,7.01 17.76,6.96 17.71,6.94 17.66,6.91 17.56,6.87 17.39,6.8 17.22,6.73 17.11,6.67 17.06,6.64 17.01,6.6 16.92,6.54 16.79,6.45 16.66,6.37 16.57,6.3 16.52,6.24 16.47,6.18 16.41,6.1 16.32,6 16.24,5.9 16.18,5.8 16.15,5.7 16.12,5.61 16.09,5.5 16.06,5.38 16.03,5.25 16.02,5.12 16.02,4.98 c 0,-0.57 0.19,-1.03 0.59,-1.36 0.4,-0.33 0.89,-0.5 1.48,-0.5 1.13,0 1.91,0.65 2.35,1.95 L 20.85,4.9 C 20.64,4.23 20.3,3.69 19.84,3.29 19.37,2.89 18.79,2.69 18.1,2.69 c -0.69,0 -1.29,0.21 -1.8,0.64 -0.51,0.43 -0.76,1 -0.76,1.71 0,0.35 0.07,0.67 0.22,0.95 0.14,0.28 0.36,0.52 0.64,0.72 0.29,0.2 0.54,0.36 0.77,0.46 0.23,0.11 0.53,0.24 0.89,0.38 0.28,0.1 0.47,0.17 0.57,0.22 0.11,0.05 0.28,0.13 0.52,0.25 0.24,0.11 0.42,0.22 0.53,0.32 0.1,0.11 0.23,0.24 0.37,0.41 0.15,0.17 0.25,0.36 0.31,0.57 0.05,0.22 0.08,0.46 0.08,0.73 0,0.67 -0.19,1.22 -0.57,1.63 -0.37,0.41 -0.94,0.61 -1.7,0.61 -1.23,0 -2.17,-0.85 -2.81,-2.55 z M 29.83,7.7 c 0,-1.37 0.38,-2.48 1.15,-3.32 0.76,-0.85 1.76,-1.27 3.01,-1.27 1.2,0 2.25,0.43 3.15,1.3 v -0.6 c -0.85,-0.75 -1.9,-1.12 -3.15,-1.12 -1.35,0 -2.46,0.47 -3.32,1.4 -0.87,0.94 -1.3,2.14 -1.3,3.61 0,1.47 0.43,2.67 1.3,3.6 0.86,0.94 1.97,1.41 3.32,1.41 1.25,0 2.3,-0.37 3.15,-1.12 v -0.56 c -0.87,0.84 -1.92,1.26 -3.15,1.26 -1.25,0 -2.25,-0.42 -3.01,-1.26 C 30.21,10.18 29.83,9.07 29.83,7.7 Z m 16.55,0 c 0,-1.32 0.41,-2.41 1.22,-3.29 0.81,-0.88 1.84,-1.32 3.08,-1.32 1.24,0 2.27,0.44 3.08,1.32 0.81,0.88 1.22,1.97 1.22,3.29 0,1.32 -0.41,2.41 -1.22,3.29 -0.81,0.88 -1.84,1.32 -3.08,1.32 -1.24,0 -2.27,-0.44 -3.08,-1.32 C 46.79,10.11 46.38,9.02 46.38,7.7 Z m -0.42,0 c 0,1.46 0.45,2.66 1.34,3.6 0.89,0.94 2.02,1.41 3.38,1.41 1.36,0 2.49,-0.47 3.38,-1.41 C 54.95,10.36 55.4,9.16 55.4,7.7 55.4,6.24 54.95,5.04 54.06,4.1 53.17,3.16 52.04,2.69 50.68,2.69 49.32,2.69 48.19,3.16 47.3,4.1 46.41,5.04 45.96,6.24 45.96,7.7 Z m 18.4,-4.9 v 9.8 h 4.48 V 12.19 H 64.78 V 2.8 Z m 13.02,0 v 9.8 H 77.8 V 7.62 h 6.23 v 4.98 h 0.42 V 2.8 H 84.03 V 7.18 H 77.8 V 2.8 Z m 17.01,4.68 h 4.34 V 7.08 H 94.39 V 3.21 h 4.62 V 2.8 h -5.04 v 9.8 h 5.04 V 12.19 H 94.39 Z M 108.32,2.8 v 6.44 c 0,1.05 0.28,1.89 0.85,2.53 0.57,0.65 1.33,0.97 2.27,0.97 0.94,0 1.7,-0.32 2.27,-0.97 0.57,-0.64 0.85,-1.48 0.85,-2.53 V 2.8 h -0.42 v 6.44 c 0,0.93 -0.25,1.68 -0.76,2.23 -0.51,0.55 -1.16,0.82 -1.94,0.82 -0.78,0 -1.43,-0.27 -1.94,-0.82 -0.51,-0.55 -0.76,-1.3 -0.76,-2.23 V 2.8 Z m 26.79,4.9 c 0,-1.37 0.38,-2.48 1.14,-3.32 0.77,-0.85 1.77,-1.27 3.02,-1.27 1.2,0 2.25,0.43 3.15,1.3 v -0.6 c -0.85,-0.75 -1.9,-1.12 -3.15,-1.12 -1.35,0 -2.46,0.47 -3.32,1.4 -0.87,0.94 -1.3,2.14 -1.3,3.61 0,1.47 0.43,2.67 1.3,3.6 0.86,0.94 1.97,1.41 3.32,1.41 1.25,0 2.3,-0.37 3.15,-1.12 v -0.56 c -0.87,0.84 -1.92,1.26 -3.15,1.26 -1.25,0 -2.25,-0.42 -3.02,-1.26 -0.76,-0.85 -1.14,-1.96 -1.14,-3.33 z M 151.8,2.8 v 9.8 h 0.42 V 7.62 h 6.23 v 4.98 h 0.42 V 2.8 h -0.42 v 4.38 h -6.23 V 2.8 Z m 17.01,4.68 h 4.34 v -0.4 h -4.34 V 3.21 h 4.62 V 2.8 h -5.04 v 9.8 h 5.04 v -0.41 h -4.62 z m 22.68,0.15 h -4.06 v 0.48 h 3.59 c -0.09,1.21 -0.48,2.21 -1.19,2.98 -0.71,0.78 -1.65,1.17 -2.82,1.17 -1.29,0 -2.33,-0.44 -3.12,-1.32 -0.79,-0.88 -1.19,-1.96 -1.19,-3.24 0,-1.3 0.4,-2.38 1.21,-3.25 0.81,-0.88 1.84,-1.31 3.1,-1.31 0.75,0 1.44,0.17 2.08,0.51 0.64,0.35 1.15,0.82 1.53,1.4 l 0.4,-0.3 c -0.44,-0.64 -1,-1.14 -1.68,-1.51 -0.69,-0.37 -1.46,-0.55 -2.33,-0.55 -1.35,0 -2.48,0.48 -3.39,1.44 -0.91,0.96 -1.37,2.15 -1.37,3.57 0,1.42 0.46,2.61 1.37,3.57 0.91,0.96 2.04,1.44 3.39,1.44 1.37,0 2.46,-0.49 3.27,-1.48 0.81,-0.98 1.21,-2.18 1.21,-3.6 z m 8.89,0.07 c 0,-1.32 0.41,-2.41 1.22,-3.29 0.81,-0.88 1.84,-1.32 3.08,-1.32 1.24,0 2.27,0.44 3.08,1.32 0.81,0.88 1.22,1.97 1.22,3.29 0,1.32 -0.41,2.41 -1.22,3.29 -0.81,0.88 -1.84,1.32 -3.08,1.32 -1.24,0 -2.27,-0.44 -3.08,-1.32 -0.81,-0.88 -1.22,-1.97 -1.22,-3.29 z m -0.42,0 c 0,1.46 0.45,2.66 1.34,3.6 0.89,0.94 2.02,1.41 3.38,1.41 1.36,0 2.49,-0.47 3.38,-1.41 0.89,-0.94 1.34,-2.14 1.34,-3.6 0,-1.46 -0.45,-2.66 -1.34,-3.6 -0.89,-0.94 -2.02,-1.41 -3.38,-1.41 -1.36,0 -2.49,0.47 -3.38,1.41 -0.89,0.94 -1.34,2.14 -1.34,3.6 z m 18.33,-4.9 v 6.44 c 0,1.05 0.28,1.89 0.85,2.53 0.57,0.65 1.33,0.97 2.27,0.97 0.94,0 1.7,-0.32 2.27,-0.97 0.57,-0.64 0.85,-1.48 0.85,-2.53 V 2.8 h -0.42 v 6.44 c 0,0.93 -0.25,1.68 -0.76,2.23 -0.51,0.55 -1.16,0.82 -1.94,0.82 -0.78,0 -1.43,-0.27 -1.94,-0.82 -0.51,-0.55 -0.76,-1.3 -0.76,-2.23 V 2.8 Z"
       id="path17"
       style="fill:#767676;fill-opacity:1;stroke:#49b339;stroke-width:0.660783;stroke-miterlimit:4;stroke-dasharray:none;stroke-opacity:1" />
  </g>
</svg>
