<?xml version="1.0" encoding="UTF-8" standalone="no"?>
<!-- Created with Inkscape (http://www.inkscape.org/) -->

<svg
   width="52mm"
   height="52mm"
   viewBox="0 0 52 52"
   version="1.1"
   id="svg5"
   inkscape:version="1.1 (c68e22c387, 2021-05-23)"
   sodipodi:docname="searchIcon.svg"
   xmlns:inkscape="http://www.inkscape.org/namespaces/inkscape"
   xmlns:sodipodi="http://sodipodi.sourceforge.net/DTD/sodipodi-0.dtd"
   xmlns="http://www.w3.org/2000/svg"
   xmlns:svg="http://www.w3.org/2000/svg">
  <sodipodi:namedview
     id="namedview7"
     pagecolor="#505050"
     bordercolor="#eeeeee"
     borderopacity="1"
     inkscape:pageshadow="0"
     inkscape:pageopacity="0"
     inkscape:pagecheckerboard="0"
     inkscape:document-units="mm"
     showgrid="false"
     width="50mm"
     inkscape:zoom="1.4681257"
     inkscape:cx="-21.115358"
     inkscape:cy="45.295849"
     inkscape:window-width="1800"
     inkscape:window-height="1059"
     inkscape:window-x="-9"
     inkscape:window-y="-9"
     inkscape:window-maximized="1"
     inkscape:current-layer="layer1" />
  <defs
     id="defs2" />
  <g
     inkscape:label="Camada 1"
     inkscape:groupmode="layer"
     id="layer1">
    <path
       style="fill:#ffffff;stroke-width:0.0937269;fill-opacity:1"
       d="m 45.06876,49.84317 c -1.073452,-0.210425 -1.154735,-0.280386 -6.565132,-5.650794 -2.809465,-2.7887 -5.918639,-5.870366 -6.909275,-6.848149 L 29.793198,35.56644 28.641955,36.137675 C 22.887883,38.99279 16.053886,38.585553 10.71359,35.069327 6.5443912,32.324189 3.7408182,28.042503 2.8408762,23.045921 2.6300992,21.875663 2.5521012,19.298762 2.6915612,18.11282 3.4228472,11.894071 7.0235312,6.6827998 12.492824,3.9274458 c 7.490114,-3.77341504 16.604567,-1.904181 21.927889,4.497073 1.897479,2.2817032 3.116422,4.7547012 3.788245,7.6856092 0.600502,2.61976 0.550906,5.619804 -0.138445,8.374609 -0.45238,1.807809 -1.39834,3.966381 -2.326817,5.309524 l -0.421141,0.609225 6.791011,6.74834 c 6.480688,6.439968 6.804992,6.77832 7.096994,7.404428 0.284409,0.60983 0.305983,0.725477 0.305983,1.640222 0,0.871573 -0.02873,1.04543 -0.251193,1.52007 -0.491511,1.048668 -1.551593,1.888507 -2.682387,2.125092 -0.565093,0.118228 -0.917068,0.118585 -1.514203,0.0015 z M 22.242004,31.528231 c 1.453517,-0.212668 2.473387,-0.538002 3.720504,-1.186823 2.601815,-1.353614 4.691304,-3.781742 5.632776,-6.545671 0.786253,-2.308244 0.825671,-4.943671 0.107926,-7.215738 -1.050478,-3.325347 -3.5299,-6.025915 -6.73391,-7.3345192 -0.365917,-0.149451 -1.108164,-0.384138 -1.649437,-0.521528 -0.890824,-0.226115 -1.148533,-0.249799 -2.718081,-0.249799 -1.569548,0 -1.827257,0.02368 -2.718081,0.249799 -2.914938,0.739889 -5.358986,2.4472152 -6.95075,4.8555482 -1.2755728,1.92994 -1.8308138,3.661457 -1.9250408,6.003241 -0.134073,3.332045 1.0606888,6.353253 3.4487778,8.72096 2.59382,2.571683 6.177072,3.752463 9.785316,3.22453 z"
       id="path21" />
  </g>
</svg>
