<svg data-v-423bf9ae="" xmlns="http://www.w3.org/2000/svg" viewBox="0 0 422.358816320415 60" class="font"><!----><!----><!----><g data-v-423bf9ae="" id="4ccf223e-5af8-4ff8-bc53-d21c4d99094d" fill="white" transform="matrix(4.288777768522039,0,0,4.288777768522039,-0.6433135291704559,-12.480344389763623)"><path d="M10.09 13.68L11.47 3.43L8.85 3.43L6.05 9.38C5.80 9.90 5.64 10.40 5.46 11.02C5.43 10.44 5.43 9.88 5.31 9.32L4.02 3.43L1.33 3.43L1.40 4.28L0.15 13.68L1.68 13.68L2.62 6.73C2.66 6.40 2.66 6.05 2.67 5.73C2.72 6.13 2.84 6.61 2.87 6.73L4.40 13.69L5.63 13.69L8.93 6.73C9.10 6.40 9.24 6.06 9.38 5.73C9.32 6.05 9.23 6.40 9.18 6.73L8.26 13.68ZM17.95 8.16C17.95 7.07 17.01 6.54 15.81 6.54C13.29 6.54 11.91 8.97 11.91 10.86C11.91 12.75 13.24 13.85 14.95 13.85C16.66 13.85 17.72 12.92 17.72 12.92L17.14 11.76C16.66 12.12 15.89 12.61 15.12 12.61C14.39 12.61 13.76 12.08 13.69 10.96C17.05 10.93 17.95 9.24 17.95 8.16ZM16.23 8.19C16.23 9.03 15.27 9.73 13.79 9.77C14.13 8.22 15.25 7.71 15.68 7.71C16.04 7.71 16.23 7.91 16.23 8.19ZM22.71 8.25L23.20 6.58C22.26 6.58 21.32 7.32 20.80 8.05C20.82 7.92 20.82 7.78 20.82 7.64C20.82 7.28 20.78 6.92 20.68 6.58L18.97 6.72C19.17 7.04 19.19 7.53 19.19 7.90C19.19 8.13 19.17 8.41 19.14 8.60L18.47 13.68L20.06 13.68L20.62 9.53C21.07 8.95 21.77 8.25 22.65 8.25ZM27.68 8.32L28.64 7.21C28.14 6.79 27.26 6.54 26.61 6.54C24.25 6.54 22.76 8.58 22.76 10.92C22.76 12.56 23.86 13.85 25.56 13.85C26.50 13.85 27.19 13.59 27.94 13.19L27.43 11.98C27.02 12.29 26.46 12.61 25.89 12.61C24.85 12.61 24.53 11.69 24.53 10.75C24.53 9.67 25.00 7.70 26.42 7.70C26.95 7.70 27.34 7.97 27.68 8.32ZM35.78 13.37L35.55 12.49C35.36 12.56 35.06 12.66 34.87 12.66C34.59 12.66 34.52 12.39 34.52 12.15C34.52 12.05 34.54 11.96 34.55 11.86L35.31 6.68L34.43 6.68L34.10 7.25C33.61 6.73 32.89 6.55 32.42 6.55C30.00 6.55 28.66 8.79 28.66 10.92C28.66 12.43 29.37 13.85 31.05 13.85C31.74 13.85 32.55 13.58 33.10 12.85L33.15 12.85C33.26 13.40 33.74 13.80 34.30 13.80C34.78 13.80 35.38 13.64 35.78 13.37ZM33.52 8.26C33.25 10.22 32.77 12.68 31.37 12.68C30.55 12.68 30.35 11.80 30.35 10.92C30.35 9.93 30.81 7.70 32.31 7.70C32.75 7.70 33.12 7.87 33.52 8.26ZM41.90 11.84L43.19 2.91L41.41 2.91L41.48 3.68L41.05 7.00C40.71 6.68 40.10 6.55 39.63 6.55C37.28 6.55 36.01 8.79 36.01 10.92C36.01 12.43 36.72 13.85 38.40 13.85C39.09 13.85 39.91 13.58 40.46 12.85C40.61 13.40 41.09 13.80 41.65 13.80C42.13 13.80 42.73 13.64 43.13 13.37L42.90 12.47C42.71 12.54 42.41 12.64 42.22 12.64C41.94 12.64 41.87 12.38 41.87 12.14C41.87 12.04 41.89 11.94 41.90 11.84ZM40.88 8.26C40.61 10.22 40.18 12.68 38.74 12.68C37.91 12.68 37.72 11.87 37.72 10.88C37.72 9.88 38.18 7.70 39.68 7.70C40.11 7.70 40.49 7.87 40.88 8.26ZM49.94 9.55C49.94 7.84 48.96 6.54 47.17 6.54C44.87 6.54 43.41 8.69 43.41 10.84C43.41 12.54 44.39 13.85 46.19 13.85C48.50 13.85 49.94 11.70 49.94 9.55ZM48.19 9.41C48.19 10.54 47.82 12.73 46.34 12.73C45.36 12.73 45.16 11.70 45.16 10.92C45.16 9.83 45.58 7.69 47.01 7.69C47.99 7.69 48.19 8.61 48.19 9.41ZM62.57 7.59C62.57 5.03 61.10 3.43 58.51 3.43L54.82 3.43L54.92 4.28L53.66 13.68L57.12 13.68C60.54 13.68 62.57 10.78 62.57 7.59ZM60.58 7.76C60.58 9.80 59.61 12.29 57.23 12.29L55.69 12.29L56.69 4.82L58.20 4.82C59.96 4.82 60.58 6.20 60.58 7.76ZM68.78 8.16C68.78 7.07 67.84 6.54 66.64 6.54C64.12 6.54 62.75 8.97 62.75 10.86C62.75 12.75 64.08 13.85 65.79 13.85C67.49 13.85 68.56 12.92 68.56 12.92L67.97 11.76C67.49 12.12 66.72 12.61 65.95 12.61C65.23 12.61 64.60 12.08 64.53 10.96C67.89 10.93 68.78 9.24 68.78 8.16ZM67.06 8.19C67.06 9.03 66.11 9.73 64.62 9.77C64.96 8.22 66.08 7.71 66.51 7.71C66.88 7.71 67.06 7.91 67.06 8.19ZM71.04 12.92L72.38 2.91L70.59 2.91L70.63 3.67L69.30 13.68L71.08 13.68ZM75.57 4.03C75.57 3.53 75.22 3.12 74.70 3.12C74.06 3.12 73.53 3.71 73.53 4.34C73.53 4.84 73.89 5.26 74.41 5.26C75.05 5.26 75.57 4.65 75.57 4.03ZM74.17 12.91L75.00 6.72L73.26 6.72L73.30 7.48L72.48 13.68L74.21 13.68ZM78.47 13.73L81.72 6.72L80.08 6.72L78.46 10.39C78.29 10.77 78.20 11.17 78.09 11.56C78.06 11.16 78.04 10.78 77.95 10.39L77.21 6.72L75.50 6.72L76.99 13.73ZM87.49 8.16C87.49 7.07 86.55 6.54 85.34 6.54C82.82 6.54 81.45 8.97 81.45 10.86C81.45 12.75 82.78 13.85 84.49 13.85C86.20 13.85 87.26 12.92 87.26 12.92L86.67 11.76C86.20 12.12 85.43 12.61 84.66 12.61C83.93 12.61 83.30 12.08 83.23 10.96C86.59 10.93 87.49 9.24 87.49 8.16ZM85.76 8.19C85.76 9.03 84.81 9.73 83.33 9.77C83.66 8.22 84.78 7.71 85.22 7.71C85.58 7.71 85.76 7.91 85.76 8.19ZM92.25 8.25L92.74 6.58C91.80 6.58 90.86 7.32 90.34 8.05C90.36 7.92 90.36 7.78 90.36 7.64C90.36 7.28 90.31 6.92 90.22 6.58L88.51 6.72C88.70 7.04 88.73 7.53 88.73 7.90C88.73 8.13 88.70 8.41 88.68 8.60L88.00 13.68L89.60 13.68L90.16 9.53C90.61 8.95 91.31 8.25 92.19 8.25ZM95.37 13.72L98.63 6.72L97.06 6.72C96.47 8.01 95.84 9.28 95.28 10.58C95.14 10.91 95.05 11.30 94.95 11.63C94.93 11.30 94.95 10.91 94.89 10.58C94.68 9.28 94.39 8.01 94.12 6.72L92.41 6.72L93.88 13.66C93.46 14.48 92.76 15.78 91.53 15.78C90.85 15.78 90.30 15.26 90.30 15.26L89.59 16.34C89.59 16.34 90.29 16.90 91.55 16.90C93.80 16.90 94.71 15.12 95.37 13.72Z"></path></g><!----><!----></svg>